<?xml version="1.0" encoding="UTF-8"?>
<svg id="Layer_2" data-name="Layer 2" xmlns="http://www.w3.org/2000/svg" viewBox="0 0 120.85 132.35">
  <defs>
    <style>
      .cls-1 {
        fill: #70ffcd;
      }
    </style>
  </defs>
  <g id="Ebene_1" data-name="Ebene 1">
    <g>
      <path class="cls-1" d="M18.48,81.72c-2.51-.73-4.53-2.8-5.11-5.45-.41-1.9-.06-3.85.99-5.49,1.05-1.64,2.68-2.77,4.58-3.18.51-.11,1.04-.17,1.56-.17,2.15,0,4.13.97,5.49,2.52,7.74-8.59,18.95-13.99,31.42-13.99,7.03,0,13.66,1.72,19.49,4.75.02-1.34.41-2.65,1.15-3.81,1.05-1.64,2.68-2.77,4.58-3.18.51-.11,1.04-.17,1.56-.17,3.4,0,6.39,2.41,7.12,5.74.41,1.9.06,3.85-.99,5.49-.88,1.37-2.17,2.38-3.67,2.92.96.92,1.88,1.89,2.75,2.89,7.56-6.02,11.47-12.49,9.97-18.06-3.07-11.44-27.73-14.78-55.08-7.45C16.94,52.4-2.75,67.62.31,79.07c1.39,5.19,7.23,8.71,15.74,10.33.57-2.66,1.38-5.23,2.42-7.68Z"/>
      <g>
        <circle class="cls-1" cx="38.94" cy="87.02" r="4.12" transform="translate(-21.19 13.04) rotate(-15)"/>
        <path class="cls-1" d="M73.02,71.59c-2.2.59-3.5,2.85-2.91,5.04.59,2.2,2.74,3.26,4.93,2.67s3.61-2.61,3.02-4.8c-.59-2.2-2.85-3.5-5.04-2.91Z"/>
      </g>
      <path class="cls-1" d="M112.8,132.35H34.82l9.11-23.16c.68-1.05,2.28-1.74,4.05-1.74h68.48c3.13,0,5.25,2.05,4.05,3.9l-7.71,21Z"/>
      <path class="cls-1" d="M69.73,105.26c-1.06-1.13-2.33-2.02-3.73-2.48-2.32-.76-3.98-1.77-4.11-2.98-.12-1.21-.83-2.44,2.48-3.58l3.01-.99,3.41-1.04c3.3-1.14,3.3.02,4.27.93.97.91.6,2.51-.35,4.41-.78,1.57-.92,3.64-.53,5.73h13.2c-.04-1.4-.45-2.9-1.28-4.5-4.07-7.89-14.03-15.36-23.3-12.15-6.78,2.35-9.83,9.76-9.38,16.66h16.31Z"/>
      <path class="cls-1" d="M43.72,42.96c8.85-2.37,17.73-3.72,25.86-3.93L24.35,1.29c-2.43-2.46-5.83-1.23-6.11,2.22l-4.33,52.21c8.09-5.26,18.46-9.72,29.82-12.77Z"/>
    </g>
  </g>
</svg>