<?xml version="1.0" standalone="no"?>
<svg viewBox="0 0 200 200" xmlns="http://www.w3.org/2000/svg">
<g> <path fill="#00CC88" d="M45.8,-23.3C59,-3.6,69.1,21.1,60.9,36.1C52.8,51.2,26.4,56.7,0.2,56.5C-25.9,56.4,-51.9,50.6,-60.8,35.1C-69.8,19.6,-61.8,-5.7,-48.8,-25.2C-35.8,-44.7,-17.9,-58.4,-0.8,-58C16.3,-57.5,32.7,-42.9,45.8,-23.3Z" transform="translate(100 100)" /></g>
  <g><path fill="#00CC88" d="M58,-32.2C67.2,-17.4,61.5,7.4,49.3,25.6C37.2,43.9,18.6,55.5,1.9,54.5C-14.8,53.4,-29.5,39.5,-38.5,23.1C-47.4,6.7,-50.5,-12.1,-43.2,-25.9C-35.8,-39.6,-17.9,-48.2,3.2,-50.1C24.3,-52,48.7,-47.1,58,-32.2Z" transform="translate(100 100)" /></g>
</svg>
